<?xml version="1.0"?>
<svg xmlns="http://www.w3.org/2000/svg" xmlns:xlink="http://www.w3.org/1999/xlink" xmlns:svgjs="http://svgjs.com/svgjs" version="1.1" width="512" height="512" x="0" y="0" viewBox="0 0 511 512" style="enable-background:new 0 0 512 512" xml:space="preserve" class=""><g><g xmlns="http://www.w3.org/2000/svg" fill-rule="evenodd"><path d="m407.550781 297.144531-9.695312-31.945312c-7.542969-23.320313-26.898438-25.914063-48.617188-32.523438l-55.75-16.945312h-86.667969l-55.632812 16.945312c-21.71875 6.609375-41.078125 9.203125-48.644531 32.523438l-9.664063 31.914062 155.71875 32.117188zm0 0" fill="#13421e" data-original="#55b8e6" style=""/><path d="m21.433594 468.207031c0 32.40625 10.191406 43.734375 59.941406 43.734375l167.222656.058594 167.21875-.058594c49.726563 0 59.914063-11.328125 59.914063-43.734375 0-70.027343 0-92.855469 0-171.09375 0-28.332031-30.511719-30.515625-31.121094-14.644531-.609375 15.488281-24.804687 14.644531-39.648437 14.644531-103 0-205.972657 0-308.96875 0h-3.785157c-14.847656 0-39.039062.84375-39.652343-14.644531-.609376-15.871094-31.121094-13.6875-31.121094 14.644531zm0 0" fill="#e8e8e8" data-original="#e8e8e8" style=""/><path d="m21.433594 359.484375v108.722656c0 32.40625 10.191406 43.734375 59.941406 43.734375l9.085938.03125c-20.234376-5.359375-25.269532-17.734375-25.269532-40.503906v-171.066406c0-1.832032.117188-3.550782.347656-5.152344-7.21875-1.863281-12.691406-5.53125-12.984374-12.78125-.609376-15.871094-31.121094-13.6875-31.121094 14.644531zm0 0" fill="#cccccc" data-original="#cccccc" style=""/><path d="m436.574219 379.339844c0 22.160156-6.289063 54.277344 26.550781 54.277344h13.394531c10.914063 0 19.183594-8.941407 19.851563-19.859376l2.097656-34.417968c.667969-10.886719-8.9375-19.855469-19.851562-19.855469h-22.183594c-10.921875 0-19.859375 8.9375-19.859375 19.855469zm0 0" fill="#ffd9b0" data-original="#ffd9b0" style="" class=""/><path d="m.53125 379.339844 2.097656 34.417968c.640625 10.570313 8.414063 19.273438 18.804688 19.828126.351562.027343.699218.027343 1.050781.027343h13.390625c32.839844 0 26.550781-32.117187 26.550781-54.273437 0-10.917969-8.9375-19.859375-19.855469-19.859375h-22.183593c-10.917969.003906-20.523438 8.972656-19.855469 19.859375zm0 0" fill="#ffd9b0" data-original="#ffd9b0" style="" class=""/><path d="m.53125 379.339844 2.097656 34.417968c.640625 10.570313 8.414063 19.273438 18.804688 19.828126.351562.027343.699218.027343 1.050781.027343h13.390625c1.894531 0 3.640625-.117187 5.300781-.320312-9.171875-1.660157-15.78125-9.8125-16.363281-19.535157l-2.09375-34.417968c-.671875-10.890625 8.933594-19.859375 19.851562-19.859375h-22.183593c-10.917969.003906-20.523438 8.972656-19.855469 19.859375zm0 0" fill="#ebab92" data-original="#ebab92" style=""/><path d="m498.46875 379.339844-2.097656 34.417968c-.640625 10.570313-8.414063 19.273438-18.804688 19.828126-.351562.027343-.699218.027343-1.046875.027343h-13.394531c-1.890625 0-3.667969-.117187-5.296875-.320312 9.140625-1.660157 15.777344-9.8125 16.363281-19.535157l2.09375-34.417968c.667969-10.890625-8.9375-19.859375-19.855468-19.859375h22.183593c10.917969.003906 20.523438 8.972656 19.855469 19.859375zm0 0" fill="#ebab92" data-original="#ebab92" style=""/><path d="m173.429688 225.894531 30.335937 40.5c10.011719 13.132813 23.316406 2.882813 25.179687-1.714843l13.65625-33.546876c-.03125 0-.03125 0-.03125 0-11.90625-1.804687-24.335937-7.628906-34.148437-14.296874-.144531-.085938-1.601563-1.078126-1.570313-1.105469zm0 0" fill="#507fcf" data-original="#507fcf" style=""/><path d="m162.777344 115.390625 10.421875 16.859375-8.648438 23.03125c-11.003906.148438-23.4375-11.210938-23.4375-22.359375v-8.707031c0-4.832032 3.960938-8.824219 8.792969-8.824219zm0 0" fill="#de9376" data-original="#de9376" style=""/><path d="m217.15625 12.140625c-30.335938 11.878906-52.546875 40.039063-56.011719 73.753906l88.5 14.765625 87.921875-14.765625c-3.46875-33.628906-25.5625-61.726562-55.75-73.636719zm0 0" fill="#ffcc73" data-original="#ffcc73" style="" class=""/><path d="m216.921875 14.703125v25.480469c0 8.121094 6.640625 14.730468 14.730469 14.730468h35.636718c8.09375 0 14.730469-6.609374 14.730469-14.730468v-25.480469c0-.8125-.058593-1.65625-.203125-2.441406-1.195312-6.960938-7.25-12.261719-14.527344-12.261719h-35.636718c-7.21875 0-13.273438 5.269531-14.496094 12.140625-.144531.847656-.234375 1.691406-.234375 2.5625zm0 0" fill="#f59556" data-original="#f59556" style="" class=""/><path d="m217.15625 12.140625c-30.335938 11.878906-52.546875 40.039063-56.011719 73.753906h22.96875c2.476563-24.339843 14.761719-45.800781 32.808594-60.300781v-10.890625c0-.871094.089844-1.714844.234375-2.5625zm0 0" fill="#f59556" data-original="#f59556" style="" class=""/><path d="m216.921875 25.59375v14.589844c0 8.121094 6.640625 14.730468 14.730469 14.730468h20.90625c-8.09375 0-14.734375-6.609374-14.734375-14.730468v-25.480469c0-.871094.089843-1.714844.234375-2.5625 1.222656-6.871094 7.277344-12.140625 14.5-12.140625h-20.90625c-7.21875 0-13.273438 5.269531-14.496094 12.140625-.144531.847656-.234375 1.691406-.234375 2.5625zm0 0" fill="#d65036" data-original="#d65036" style="" class=""/><path d="m337.566406 115.390625-10.453125 16.859375 8.644531 23.03125c11.035157.148438 23.464844-11.210938 23.464844-22.359375v-8.707031c0-4.832032-3.988281-8.824219-8.820312-8.824219zm0 0" fill="#de9376" data-original="#de9376" style=""/><path d="m163.066406 143.023438c0 24.835937 18.339844 54.683593 43.753906 72.707031h.03125c.117188.085937.230469.175781.347657.261719.03125.03125.058593.03125.089843.058593 5.703126 3.988281 12.167969 7.628907 18.863282 10.394531.753906.292969 1.542968.582032 2.300781.875 5.035156 1.863282 9.632813 3.144532 14.117187 3.8125 5.125.789063 10.074219.789063 15.167969 0 4.511719-.667968 9.171875-1.949218 14.238281-3.84375 7.539063-2.824218 14.789063-6.78125 21.511719-11.558593 25.414063-18.023438 43.753907-47.867188 43.753907-72.703125l.324218-27.632813-87.921875-14.734375-86.867187 14.734375zm0 0" fill="#ffd9b0" data-original="#ffd9b0" style="" class=""/><path d="m161.144531 85.894531c-5.5 0-10.015625 4.515625-10.015625 10.019531v9.464844c0 5.5 4.515625 10.015625 10.015625 10.015625h177.003907c5.53125 0 10.042968-4.515625 10.042968-10.015625v-9.464844c0-5.503906-4.511718-10.019531-10.042968-10.019531zm0 0" fill="#f59556" data-original="#f59556" style="" class=""/><path d="m151.128906 95.914062v9.464844c0 5.5 4.511719 10.015625 10.015625 10.015625h22.910157c-5.5-.03125-9.953126-4.542969-9.953126-10.015625v-9.464844c0-5.503906 4.507813-10.019531 10.011719-10.019531h-22.96875c-5.5 0-10.015625 4.515625-10.015625 10.019531zm0 0" fill="#d65036" data-original="#d65036" style="" class=""/><path d="m257.765625 231.132812 13.628906 33.546876c1.863281 4.597656 15.167969 14.847656 25.179688 1.714843l30.363281-40.5-33.449219-10.164062c-13.535156 9.636719-20.609375 11.296875-35.75 15.402343zm0 0" fill="#507fcf" data-original="#507fcf" style=""/><path d="m148.074219 233.609375v63.503906h79.183593v-29.960937c-4.277343 4.773437-15.050781 10.308594-23.492187-.757813l-30.335937-40.503906-22.242188 6.785156c-1.046875.320313-2.09375.613281-3.113281.933594zm0 0" fill="#f59556" data-original="#f59556" style="" class=""/><path d="m273.082031 267.152344v29.960937h79.183594v-63.535156c-.988281-.289063-2.007813-.609375-3.027344-.902344l-22.300781-6.785156-30.363281 40.503906c-8.441407 11.066407-19.214844 5.53125-23.492188.757813zm0 0" fill="#f59556" data-original="#f59556" style="" class=""/><path d="m148.074219 233.609375v18.285156c7.21875-2.855469 15.371093-4.804687 23.929687-7.28125l12.664063-3.695312-11.238281-15.023438-22.242188 6.785157c-1.046875.316406-2.09375.609374-3.113281.929687zm3.113281-.933594" fill="#d65036" data-original="#d65036" style="" class=""/><path d="m206.851562 215.730469c-.03125 0-.03125 0-.03125 0zm-33.421874 10.164062 11.238281 15.023438 45.152343-13.074219c-.902343-.320312-1.773437-.667969-2.648437-1.019531 0 0-.03125 0-.058594 0-.320312-.144531-.640625-.261719-.960937-.378907-.03125-.027343-.058594-.027343-.089844-.058593h-.027344c-6.199218-2.5625-12.167968-5.851563-17.554687-9.492188-.027344-.027343-.027344-.027343-.058594-.058593-.058594-.027344-.230469-.144532-.433594-.289063-.089843-.058594-.207031-.148437-.292969-.203125-.144531-.085938-.289062-.203125-.40625-.292969l-.085937-.058593-.058594-.027344c-.03125-.03125-.03125-.03125-.058593-.058594-.058594-.03125-.117188-.085938-.175782-.117188 0 0-.027344 0-.027344-.03125-.03125 0-.03125-.027343-.03125-.027343h-.027343zm0 0" fill="#6052c4" data-original="#6052c4" style="" class=""/><path d="m148.074219 233.609375c-20.4375 5.96875-38.34375 9.40625-45.503907 31.589844l-9.691406 31.914062h24.421875l6.054688-19.972656c4.601562-14.179687 13.507812-20.789063 24.71875-25.246094zm0 0" fill="#507fcf" data-original="#507fcf" style=""/></g></g></svg>
